<svg width="28" height="28" viewBox="0 0 28 28" fill="none" xmlns="http://www.w3.org/2000/svg">
<path d="M11.3334 5.99999H16.6667C16.6667 5.29275 16.3857 4.61447 15.8856 4.11437C15.3855 3.61427 14.7073 3.33332 14 3.33332C13.2928 3.33332 12.6145 3.61427 12.1144 4.11437C11.6143 4.61447 11.3334 5.29275 11.3334 5.99999ZM8.66669 5.99999C8.66669 4.5855 9.22859 3.22895 10.2288 2.22875C11.229 1.22856 12.5855 0.666656 14 0.666656C15.4145 0.666656 16.7711 1.22856 17.7713 2.22875C18.7715 3.22895 19.3334 4.5855 19.3334 5.99999H26C26.3536 5.99999 26.6928 6.14047 26.9428 6.39051C27.1929 6.64056 27.3334 6.9797 27.3334 7.33332C27.3334 7.68694 27.1929 8.02608 26.9428 8.27613C26.6928 8.52618 26.3536 8.66666 26 8.66666H24.824L23.6427 22.4533C23.5291 23.7846 22.92 25.0248 21.9358 25.9284C20.9517 26.8321 19.6641 27.3335 18.328 27.3333H9.67202C8.3359 27.3335 7.04839 26.8321 6.06422 25.9284C5.08005 25.0248 4.47092 23.7846 4.35735 22.4533L3.17602 8.66666H2.00002C1.6464 8.66666 1.30726 8.52618 1.05721 8.27613C0.807163 8.02608 0.666687 7.68694 0.666687 7.33332C0.666687 6.9797 0.807163 6.64056 1.05721 6.39051C1.30726 6.14047 1.6464 5.99999 2.00002 5.99999H8.66669ZM18 14C18 13.6464 17.8595 13.3072 17.6095 13.0572C17.3594 12.8071 17.0203 12.6667 16.6667 12.6667C16.3131 12.6667 15.9739 12.8071 15.7239 13.0572C15.4738 13.3072 15.3334 13.6464 15.3334 14V19.3333C15.3334 19.6869 15.4738 20.0261 15.7239 20.2761C15.9739 20.5262 16.3131 20.6667 16.6667 20.6667C17.0203 20.6667 17.3594 20.5262 17.6095 20.2761C17.8595 20.0261 18 19.6869 18 19.3333V14ZM11.3334 12.6667C10.9797 12.6667 10.6406 12.8071 10.3905 13.0572C10.1405 13.3072 10 13.6464 10 14V19.3333C10 19.6869 10.1405 20.0261 10.3905 20.2761C10.6406 20.5262 10.9797 20.6667 11.3334 20.6667C11.687 20.6667 12.0261 20.5262 12.2762 20.2761C12.5262 20.0261 12.6667 19.6869 12.6667 19.3333V14C12.6667 13.6464 12.5262 13.3072 12.2762 13.0572C12.0261 12.8071 11.687 12.6667 11.3334 12.6667Z" fill="white"/>
</svg>
