<svg width="45" height="45" viewBox="0 0 45 45" fill="none" xmlns="http://www.w3.org/2000/svg">
<path d="M18 9H27C27 7.80653 26.5259 6.66193 25.682 5.81802C24.8381 4.97411 23.6935 4.5 22.5 4.5C21.3065 4.5 20.1619 4.97411 19.318 5.81802C18.4741 6.66193 18 7.80653 18 9ZM13.5 9C13.5 6.61305 14.4482 4.32387 16.136 2.63604C17.8239 0.948212 20.1131 0 22.5 0C24.8869 0 27.1761 0.948212 28.864 2.63604C30.5518 4.32387 31.5 6.61305 31.5 9H42.75C43.3467 9 43.919 9.23705 44.341 9.65901C44.7629 10.081 45 10.6533 45 11.25C45 11.8467 44.7629 12.419 44.341 12.841C43.919 13.2629 43.3467 13.5 42.75 13.5H40.7655L38.772 36.765C38.5804 39.0115 37.5524 41.1043 35.8917 42.6293C34.2309 44.1542 32.0582 45.0003 29.8035 45H15.1965C12.9418 45.0003 10.7691 44.1542 9.10834 42.6293C7.44755 41.1043 6.41965 39.0115 6.228 36.765L4.2345 13.5H2.25C1.65326 13.5 1.08097 13.2629 0.65901 12.841C0.237053 12.419 0 11.8467 0 11.25C0 10.6533 0.237053 10.081 0.65901 9.65901C1.08097 9.23705 1.65326 9 2.25 9H13.5ZM29.25 22.5C29.25 21.9033 29.0129 21.331 28.591 20.909C28.169 20.4871 27.5967 20.25 27 20.25C26.4033 20.25 25.831 20.4871 25.409 20.909C24.9871 21.331 24.75 21.9033 24.75 22.5V31.5C24.75 32.0967 24.9871 32.669 25.409 33.091C25.831 33.5129 26.4033 33.75 27 33.75C27.5967 33.75 28.169 33.5129 28.591 33.091C29.0129 32.669 29.25 32.0967 29.25 31.5V22.5ZM18 20.25C17.4033 20.25 16.831 20.4871 16.409 20.909C15.9871 21.331 15.75 21.9033 15.75 22.5V31.5C15.75 32.0967 15.9871 32.669 16.409 33.091C16.831 33.5129 17.4033 33.75 18 33.75C18.5967 33.75 19.169 33.5129 19.591 33.091C20.0129 32.669 20.25 32.0967 20.25 31.5V22.5C20.25 21.9033 20.0129 21.331 19.591 20.909C19.169 20.4871 18.5967 20.25 18 20.25Z" fill="#E24F4F"/>
</svg>
